<?xml version="1.0" encoding="utf-8"?>
<!-- Generator: Adobe Illustrator 28.0.0, SVG Export Plug-In . SVG Version: 6.00 Build 0)  -->
<svg version="1.1" id="_レイヤー_1" xmlns="http://www.w3.org/2000/svg" xmlns:xlink="http://www.w3.org/1999/xlink" x="0px"
	 y="0px" viewBox="0 0 1920 1080" style="enable-background:new 0 0 1920 1080;" xml:space="preserve">
<style type="text/css">
	.st0{fill:#8D8D8D;}
	.st1{fill:#1C1C1C;}
	.st2{fill:#808080;}
	.st3{fill:#7B7B7B;}
	.st4{fill:#6E6E6E;}
	.st5{fill:#1D1D1D;}
	.st6{fill:#05BDBD;}
	.st7{fill:#66CBCB;}
	.st8{fill:#FEFEFE;}
	.st9{fill:#F3ADB7;}
	.st10{fill:#F2AEB8;}
	.st11{fill:#F5F5F5;}
	.st12{fill:#79E2CD;}
	.st13{fill:#98CBFE;}
	.st14{fill:#63B4C6;}
	.st15{fill:#A3E7D6;}
	.st16{fill:#33CBCB;}
	.st17{fill:#323232;}
	.st18{fill:#FDFDFD;}
	.st19{fill:#010101;}
</style>
<path class="st0" d="M150,461.3c-5.3,18.9-5.7,27.7,0.5,46.6c4.7,25.7,25,45.4,37,68.2c-9.5,36.2-6.5,30.2,1.2,65.5
	c5.3,13.8,16.8,24.7,24.5,37.4c0.9,1.3,2.3,2.4,1.7,4.6c-16.2,1.9-27.2,12.4-39.1,23.6c-10,0.3-29.8,14-34.8,23.2
	c-17.1,17.5-14.4,41.1-20.8,62.4c-1.8,10.5-6.3,20.8-6.4,31.4c3.8,12,4.2,25.5,10,36.6c6.8,9,12.1,19.3,21.8,25.8
	c5.5,25.2,22.7,38.3,46.8,44.6c20.7,36.9,73.6,40.2,102,10.1c2.4-2.5,5.2-4.1,8.5-5.2c10.3-3.4,19-9.5,26.3-17.2
	c8.4-9,13.8-19.8,15.3-32.2c1.1-5,4.7-8.7,7.2-12.9c8.5-8.5,10.1-20.3,12.9-31.5c6.7,0.8,13.3,1.6,20,2.3c9.7,0.9,18.6-2.8,27.9-4.6
	c3.2,5.3,8.7,7.9,12.9,12.2c2.2,12.1,7.8,23,17.9,30.4c19,10.9,25.3,5.6,44.5,2.8c13.1,0,24.2-4.2,34.5-11.8
	c16.7,31.4,90.6,8.7,95.3-21.9c2.8-1.2,5.8-1.1,7.1-2.5c18.1,1.1,34.9,0.9,49.2-11.4c4.6,3.5,10.3,4.3,16.2,4.6
	c3,4.7,7.5,7.6,11.4,11.4c1.4,8.7,5.2,16.2,10.8,22.9c16.6,21,45.6,26.7,70.9,22.1c5.2-0.7,8.8,0.7,11.1,5.7
	c3.6,7.7,8.5,14.7,13.9,21.2c41,45.6,102.8,20,113.5-37.6c0.3-0.3,0.5-0.5,0.8-0.8c16,13.5,43.7,15,58.7-0.5
	c15-13.6,28.5-1,44.6-31.1c24,5.5,42.1-2.6,54.8-23.3c18.8,2.6,40.2-4.6,49.4-21.7c22,5.7,43.2,12.5,65.7,12.3
	c10.7,14.3,24.5,25.7,38.7,36.3c13.4,9.9,26.2,20.7,41.9,27.2c22.4,7.6,45.6,16.9,69.7,14.4c39.6-7,80.1-19.4,108.9-49
	c13.7,8.9,28.7,10.3,44.2,10c8.2,10.8,15,24.9,28.5,29.4c31.1,13.5,65.9-8.8,66.8-42.9c6.4-8.8,14.7-16.4,16.6-27.8
	c11.8-9,16.1-21.7,17.1-35.9c6.9-8.8,15.8-17.6,17.1-29.2c2.6-11.4,7.4-22.7,2.4-34.6c-2.6-9.1-3.5-18.8-8.4-27.1
	c10-12.8,19.8-25.6,24.7-41.1c19.5-9,34.1-26.3,36.4-47.9c0.8-3.3,2.9-6,4.9-8.6c7.8-9.1,12.5-19.6,14.2-31.5
	c5-16.4,5.4-33.5,5.5-50.6c0.8-13.6,2.5-27.2-2.2-40.5c-2.6-11.3-4.2-22.8-11.4-32.3c7.8-10.3,7.1-25,11.3-37
	c2.5-8.9-2.5-17.2-3.1-26c24.7,0.2,52.7-12,59.5-43.1c23.7-9.8,31.8-29,37.9-52.2c5.3-7.6,12.3-14.4,14.1-23.8
	c1.6-11.1,7.6-22.2,5.5-33.6c-5.6-22.1-3.7-25.6-18.5-44c-1.3-2.1-3.4-3.7-3.9-6.5c-1.4-9.2-3.4-18.2-9.9-25.4
	c-8.7-12.3-20-23.1-35.1-26.9c-8.6-2.5-17.8-3.5-26.1-6.4c-5.2-5-12-6.2-18.7-7.9c-11.5-2.9-22.8-6.3-34.8-1.6
	c-6.7,2.9-14.8,2.2-21.1,6.2c-5.7,4.1-11.5,8-16.9,12.4c-2.2,1.8-4.5,3.1-7.2,3.4c-20.1,3.4-37.6,19.6-46.1,37.5
	c-4.7,9.8-6,21.1-7.9,31.9c-1.2,3-0.9,6.1-0.2,9.2c1.8,10.2,5.9,20.3,6.4,30.6c-1.2,4.7-2.2,9.4-3.4,14.4
	c-18.8,4.2-37.5,8.4-54.9,17.4c-7.9-9.2-12.7-20.9-23.7-27.3c-8.5-12.2-21.6-20.7-34.2-27.6c-12.4-2.9-24.8-5.8-37.1-8.7
	c-3.3-0.8-6.5-1.6-9.9-0.4c-6.2,2.6-12.4-1.8-18.8,0.3c-26.9,6.3-45.9,7.4-66.1,29c-30.4,30.1-31.6,40.4-40.7,80.6
	c-17.4,10.8-31,25.3-36.6,45.9c-52.7-49.2-129.6-29.4-194.5-26.4c-35.3-26.2-73.8-47.6-110.4-71.8c-10.2-8.2-22.5-11.2-35.1-13.8
	c-9.2-2.2-18.3-4.8-27.9-1.7c-6.7,2.2-13.7,3.7-20.7,5c-15.8,4.4-29,16.4-40,28.2c-9.6-10.4-19.3-19.2-31.1-26.8
	c-12-7.7-27.3-7.7-40.7-11.9c-11.4-0.7-22.7,4.8-34,6.5c-5.4,1.2-10.3,3.4-14.9,6.7c-19.3,13.9-38.5,27.6-58,41.1
	c-13.1-19.1-26-25.9-47.1-32.8c-4.6-8.5-12.8-13.1-20-18.8c-9.7-8.1-22.4-8.9-34.2-12c-4.6-0.9-9.1-3.3-13.9-2.4
	c-23.8,4.5-47.7,9.1-71.5,13.9c-36.5,10.1-73.8,15.8-110.7,24.5c-19,3.3-34.5,17.9-44.9,33.6c-7.8-1.3-15.2-4-23.1-4.9
	c-7.6-10.3-13.9-22-26.4-27.8c1.5-8.5-0.1-16.1-2.6-23.6c-2.2-24.8-21.8-46.8-45.5-53.9c-9.4-1.1-18.7-6.2-28.2-4.9
	c-11.1,3.5-23.6,3.5-33.5,9.9c-8.1,6-16.8,11.3-22.2,20.3c-1.7,2.9-4.5,4.5-7.9,3.7c-10.7-1-20.9,4.2-31.4,5.8
	C86,232,73.9,243.6,65.2,256.3c-2.7,4.5-4.8,8.9-5.2,14c-6,15.6-6.5,31.2-0.6,47.2c2.6,16.5,15.8,26.6,26.1,37.8
	c6.1,24.1,8.8,51.3,30.5,66.9c1.7,1.5,3.3,2.9,4,5.1C122.7,442.4,134.5,457.3,150,461.3L150,461.3z"/>
<path class="st1" d="M1594.4,848.3c-0.9,34.1-35.8,56.4-66.8,42.9c-13.5-4.5-20.3-18.6-28.5-29.4c-15.4,0.3-30.5-1.1-44.2-10
	c-28.8,29.6-69.2,42-108.9,49c-24.2,2.5-47.3-6.8-69.7-14.4c-15.7-6.4-28.5-17.2-41.9-27.2c-14.2-10.6-28-22-38.7-36.3
	c-22.5,0.2-43.7-6.6-65.7-12.3c-9.2,17-30.6,24.3-49.4,21.7c-12.7,20.7-30.7,28.9-54.8,23.3c-16.2,30.1-29.5,17.5-44.7,31.1
	c-15,15.5-42.7,13.9-58.7,0.5c3.1-6.3,8.3-11.4,10.9-18.1c20.6,6,44.2-1,60.4-14.6c2.8-2.6,6.3-3.4,9.9-4c11.8-2,21.7-10.5,30-18.5
	c20.8-3.8,41.5-7.2,55.5-25.7c16.4-4.1,34.2-5.3,46-19.1c15.3,3,29.2,7.7,43.9,8.8c25,24.5,52.9,47.6,84.7,62.5
	c24.2,7.5,49.6,17.1,75.2,16.3c41.7-6.7,83.6-17.3,116.7-45.1c8.8,2,17.8,4.1,27.6,6.4c6.3,11.8,18.7,21,31,26.9
	c10.6,1.5,21.1,6.9,31.8,5.7C1569.5,863.2,1575,864.4,1594.4,848.3L1594.4,848.3z"/>
<path class="st0" d="M1251.2,833.9c22.7,13,68.4,28.5,94.2,23.5c38.3-7,77-18.8,106.3-45.5c13.2,3.4,25.7,8,39,7.1
	c13,20.8,27.8,32.8,53.1,33.5c38.1-3.6,57.5-29.3,55.7-67c8.5-6.4,17.7-11.6,23.4-20.5"/>
<path class="st1" d="M425.3,852c10.1,6.1,21.4,8.4,32.6,10.9c5,1.1,9.9-0.6,14.7-1.6c14.1-3,28.7-3.4,42.1-8.4
	c3.1,2.8,6.4,3.9,9.9,4.6c13,3,26.1,7.6,39.3,3.1c26-4.5,51.7-15.2,67.5-36.9c14.9-1,29.1-4.8,44-9.2c0.5,11.1,8.7,18.8,14.6,27.7
	c-5.9-0.2-11.6-1.1-16.2-4.6c-14.3,12.3-31.2,12.5-49.2,11.4c-1.3,1.4-4.3,1.3-7.1,2.5c-4.7,30.5-78.6,53.3-95.3,21.9
	c-10.4,7.7-21.4,11.8-34.5,11.8c-6.6,0.2-13.1,2.7-19.8,3.9C446.1,890.9,428.1,872.8,425.3,852L425.3,852z"/>
<path class="st1" d="M701.4,853.6c9.4,5.5,17.3,13.3,28.8,14.6c14.5,3.5,27.9,7,43.2,5.8c15.9,26.5,37.7,41.6,68.2,47.3
	c30.6,4.5,62.2-8.8,80.2-33.3c-14,72.1-96.3,83-127.4,16.4c-4.7-10.5-17-3.8-25.6-4.2C739.4,901.5,706.9,884.3,701.4,853.6
	L701.4,853.6z"/>
<path class="st1" d="M344.4,886.6c-2.6,23-20.1,42-41.6,49.5c-3.3,1.1-6,2.6-8.5,5.2c-28.4,30.1-81.3,26.9-102-10.1
	c-24.1-6.3-41.3-19.4-46.8-44.6c11.7,10.5,27.8,12.6,37.2,25.8c3.3,4.1,8.8,6.5,13.1,9.8c11.1,8.7,26,8.8,39,12.9
	c9.2,2.8,18.1-1.2,27.2-2.8c12.5-2.3,24.2-6.3,34.2-14.8c6.4-5.5,13.1-10.7,21.4-13.3c9.2-5.4,18.1-12,26.3-19.1
	C344.1,885.7,344.2,886.1,344.4,886.6L344.4,886.6z"/>
<path class="st2" d="M1644.2,645.8c9.4-12.3,17.6-25.3,24.4-39.1c27.8-15.5,38.6-40.1,39.2-71.2"/>
<path class="st1" d="M1733.3,349.4c25.4-3.1,49.9-18.5,60.4-42c5.1-9.7,14-14.9,21.3-20.9c-2.6,23-15.1,38.7-35.7,48.4
	c-6.8,31.2-34.8,43.3-59.5,43.1c-3-8.8-3.8-18.1-8.7-27.5C1719.4,353,1726.4,351.5,1733.3,349.4L1733.3,349.4z"/>
<path class="st3" d="M1707.9,535.5c-0.3-18,3.2-35.8,0.7-53.8c-3.2-14-5.9-28-16.5-38.9c-0.6-0.5-0.6-1.3-0.1-1.9l0,0"/>
<path class="st4" d="M1796.3,280.7c25.2-19.8,32.7-59.9,12.2-85.7"/>
<path class="st1" d="M1663.5,646.4c6.2-7.8,12-15.8,15.9-25c0.9-2.1,2.2-3.7,4.1-5.1c5.3-3.9,11-7.3,15.7-11.9
	c0.5-0.5,0.8-0.2,1.1,0.3c-2.3,21.7-16.9,38.9-36.4,47.9c-4.9,15.5-14.7,28.3-24.7,41.1c-4.7-3-6.2-8-9.9-12.3
	C1643.4,672.1,1654.7,660.4,1663.5,646.4L1663.5,646.4z"/>
<path class="st1" d="M364.5,842.2c1.7-8.7,5.3-16.5,2.5-25.7c11.1,1.5,21.7,3.4,32.4-1.2c1.7,9.9,8.3,16.7,13,24.5
	c-9.3,1.8-18.2,5.5-27.9,4.6C377.8,843.8,371.2,843,364.5,842.2L364.5,842.2z"/>
<path class="st1" d="M153.1,449.3c-1.1,4-2.1,8-3.1,12c-14.6-3.8-27.7-18.8-30.7-35.5c11.8,10.5,25,7.3,36.5,11.9
	c0.3,0.9,0.6,1.9,0.9,3C155.4,443.5,153.3,446,153.1,449.3L153.1,449.3z"/>
<path class="st5" d="M1611,820.5c1.5-9.2,5.1-17.9,5.5-27.5c3.8-2.8,7.8-5.6,11.7-8.4C1627.1,798.8,1622.9,811.5,1611,820.5
	L1611,820.5z"/>
<path class="st6" d="M1251.2,833.9c-22.2-16.8-45.9-31.8-63.8-53.8c-19.7-0.4-38.3-6.8-57.6-10.8c-12.1,16.5-30.3,18.8-49.3,21.4
	c-12.4,19-31.5,24.5-54.4,23.8c-7.8,12.2-21.1,20.4-35.3,22.4c-1.6,0.5-3.6,0.2-4.4,2.2c-19.3,17.5-39.3,18.3-63,10.8
	c-22.9,72.7-111,73.2-141.6,5.8c-13.7,1.4-27,2.9-40.3-1.3c-7.5-1.8-15.2-3-21.7-7.9c-16.8-10.8-29-27.1-31.7-47.1
	c-6.1,0.5-11.4-2-16.3-2.7c-16.2,8.2-32.8,11.2-50.3,9.6c-8.9,23.7-36.9,33.2-59.2,38.1c-16.2,3.7-33.4-0.1-46-10.4
	c-10,5.4-20.6,7.6-31.9,8.2c-37.6,11.2-67.8-5.5-72.3-45.9c-28,7.8-38,4.8-66.2,1.1c6.6,25,6.9,27.5,0.2,52.2
	c-7.3,22.1-27.2,36.6-48,44.8c-9.3,8.3-19.5,17.2-31.9,20c-5.7,1.2-11.4,2.5-17.1,4.1c-10.4,2.5-20.4-2.1-30.4-4
	c-15.8-4.2-27.1-15-36.1-28.3c-18.5-2.5-33.8-17.2-43.9-32.2c-5-9.9-6.1-20.9-8.7-31.5c-0.5-2.2,0.6-4.4,1.1-6.6
	c2.5-9.2,2.8-19.4,9.1-27c-3.8-12.6,1.3-24.2,5-35.6c5.7-16.3,22.8-29.6,40-32.2c11.8-11.1,18.4-20.2,36.2-23
	c8.6-2.1,15.7-4.3,25.1-0.6c-12.8-17.7-23.8-34.2-36.8-51.3c-5.8-7.5-7.2-16.2-9.5-24.8c-6.2-16.4,0.4-32.5,4.9-48.3
	c-10.7-16.2-20.3-33.1-31.3-49.1c-8-10.7-8.3-23.9-11.8-36.1c-1.5-10.9,4.2-22,5.8-32.8c1.3-3.9,3.4-6.8,5.7-10.4
	c-0.9-7.8-4.7-15.4-3.3-24.1c-11.5,2.8-22.1-1.8-33-4.6c-12.5-5.9-23.2-17.5-27.3-31c-2.4-10.5-5.8-21-3.9-31.9
	c0.2-1.6,0.6-3.2-0.5-4.7c-26.7-17.9-40.1-43.3-29.9-75c8.9-28.4,42.2-39.2,69.3-36c17.1-24.9,40.8-40,71.7-30.9
	c31.1,7.9,42.7,41.7,39.6,70.7c14.2,9.8,27.7,20.2,31.2,39c15.1-5.9,28.6,2.8,43.3,4.3c6-15.6,20-29.6,35.6-35.5
	c26.2-5.3,52.9-13.8,79.6-14.1c9.4-7.7,21.3-8.1,32.3-10.6c25.1-4.4,50.5-12.2,75.9-13.4c8,1.9,16,3.8,24,5.6
	c12.1,5.5,22.8,13.9,29.4,26.2c25.5,2.9,40.8,18.8,51.5,40.9c24.3-17.2,49-34.8,73.4-52.1c6.4-4.5,14.1-4.7,21.2-6.8
	c12.5-5.3,24.4-0.8,36.5,2c23.3,5.6,36.3,26,52.4,41.9c12.1-12.9,23-26,38.4-34.6c4.7-3,10.5-3,15.7-4.5c7.7-1.8,15.6-4.6,23.5-2.6
	c7.6,1.8,15.3,3.5,22.9,5.4c18,8.8,34.3,21.4,51.7,31.5c10.5,6.7,21,13.5,31.5,20.1c14.6,10.2,32.2,17.9,43.3,32.1
	c25.6-2.6,51-4.4,76.5-6.4c25.5-2.3,51.1-2.4,75.8,5.3c43.9,12.4,56.7,45.8,63.7,86.7c0.8,0.7,1.7,0.9,2.8,0.7
	c-0.8-15.1-3.6-30.5-5.6-45.6c-1.5-9.4,2.4-17.6,4.1-26.3c4.3-19.3,19.9-34.4,37.8-41.5c-2.1-10.4,2.7-19.6,4.2-29.3
	c0.9-14.5,9.2-25.7,18.5-35.7c13-15.4,28.9-31.1,49.7-33.7c25.3-8.8,51.7-4.1,76.8,3.2c7.1,3.4,13.1,9.2,19.8,13.5
	c13.7,15.6,32.3,28.1,35.1,50.4c25.2-16.4,53.7-23.1,83-28.9c-5.7-11.7,2.7-21.6,1.1-32.6c-3-11.2-7.1-22.1-6.7-33.9
	c3.6-14.3,5.9-29.5,17.4-39.7c15.5-17.9,27.3-9.9,39.5-21.2c19.9-20,55.3-21.9,76.3-3.3c27.6,0.8,54.8,11.3,61.3,53.6
	c13.3,9.4,16.9,26.1,19.7,41c-0.6,26.6-14.3,48.2-37.4,61.1c-6.9,20.1-19.6,35.2-40.1,40.9c-30.2,8.3-21.3,7.2-57.8-3.1
	c8.3,24.6,21,49,21.2,75.2c-3.7,16-4.5,26.3-15.1,39.5c10.3,11.4,14,25.3,17,39.8c2.2,10.4,0.2,20.7,0,31.1
	c-0.2,29.9-0.7,65.4-27,84.9c-4.5,4-10.8,6.3-14.5,11c-4.9,13.6-13.9,24.7-22.3,36.2c-11.2,15.5-27.6,25.4-43.3,36.3
	c42.8,23.6,41,81.8-1.8,104.5c1.8,37.8-17.6,63.4-55.7,67c-25.3-0.7-40.1-12.8-53.1-33.5c-13.4,0.8-25.8-3.7-39-7.1
	c-29.3,26.7-67.9,38.5-106.3,45.5C1319.8,862.4,1274,846.9,1251.2,833.9L1251.2,833.9z M1190.8,773.4c15.8,20.6,37.7,35,58.2,50.4
	c12,8.9,25.4,14.8,39.6,18.9c16.7,3.9,33.5,10.8,50.9,8.9c40.6-6.2,82-19.2,111.8-48.4c13.5,7.4,27.9,9.6,42.9,9.2
	c12.8,19.9,24.3,32.8,49.5,33.6c36.6-3.3,51.5-29.2,49.4-64c18.6-11.3,35.5-27.7,33.2-50.7c0-25.7-19.5-44.8-44.9-47.8
	c37.7-17.2,65.6-43.2,81-81.2c29.2-12.9,39.2-42,38.8-72c-1-13.7,3.1-28.2,1.6-41.7c-2.1-17.3-6.8-34.4-20.8-46.6
	c37.1-37,4.6-86.6-8.4-127.2c3.1,1.2,6,0.4,8.2,2c9.1,6.6,19.8,8.4,30.4,11c27.5,4.4,59.7-14.2,64.8-42.8
	c15.8-7.7,29.8-20.2,33.7-37.8c6.9-19.3,1.8-43.1-15.4-55.6c-5.8-41.3-30.8-51.3-56.5-50.5c-26.1-23.1-61-13.3-75.6,6.6
	c-26.2,3.2-44.8,19.1-48.4,45.8c-3.6,13.6,1.6,27.2,6.7,40.4c-4.3,12.2-6.6,25-1.1,37.2c-34.9,3.7-66.6,14-95.5,33
	c-2.5-23.6-17.9-39.9-34.8-55.1c-9.1-9.1-20.4-15.5-33.8-16.7c-9.5-2.3-18.6-5.5-28.5-2.4c-17.7-3.2-42.6,5.4-57,16.3
	c-7.2,5.7-12.2,13.1-18.4,19.4c-8.2,8.3-14.9,18.3-16.5,30.8c-2.3,11.9-5.9,21.6-3.3,34c-9.4,0.4-15.9,6.8-22.8,12.3
	c-16.1,12.8-21.9,36.6-19.2,56.6c2.9,16,4.9,32.2,6.1,48.5c-6-1.5-11.6-2.9-17.6-4.4c-4.4-72.7-52.1-96.2-119.4-91.5
	c-31.1,2.9-62.2,2.9-93,8.4c-4.5-9.5-13-14.4-21-19.6c-29.2-18.9-58.6-37.5-88.1-56c-7.2-4.5-14-9.9-22.9-11.4
	c-10.2-1.7-20.2-6.1-30.8-2.3c-6.6,2.3-14,2.1-20,5.8c-16.7,9.4-27.3,24.7-40.9,38.2c-15.7-14.5-27.4-35-47.5-43.1
	c-13.1-4.6-26.7-9.8-41-4c-6.4,2.2-13.7,2.2-19.3,6.7c-27.2,19.1-53.6,38.4-81,57.3c-2.5-25.5-25.3-44.7-49.6-46.5
	c-12-21-28.8-28-51.7-31.4c-18.2,1.6-36.3,6.4-54.3,9.7c-17.4,3.8-35.7,4.6-51.5,14.9c-25.2-1-51.1,8-76,12.7
	c-17.7,5.7-32.7,21.3-35.5,39.9c0,0.4,0,1-1,1.2c-6.7-6.6-16.2-6.4-24.6-9.3c-9.2-3.2-17.9-0.8-27.4,1.7
	c-1.5-21.8-16.9-33-32.7-43.6c1.8-25.3-2.9-56.5-29.8-66.4c-32.9-11.5-53.4,3.5-71.4,30.2c-25.9-3.5-57.8,3.9-66.6,31.9
	c-9.9,30.9,5.7,52.6,31.1,68.6c-2.1,23.9,2.5,54.3,26.9,64.8c11.1,3.2,22.3,7.9,34.2,2.8c1.4-0.6,3-1.2,5.2-0.6
	c-5.5,11.8-0.4,23,1.9,34.2c-3.4,4.7-6.9,9.1-8,14.8c-1.5,9.9-6.6,19.6-3.7,29.7c5.2,31.5,28.5,55,43.6,82.5
	c-12.5,23.2-10.4,52.8,5.6,74c14.7,18.2,25.6,39.6,42.1,56.2c0,1.5-0.3,2.8-1.1,4c-32.5-11.4-56.8,0.2-69,19.4
	c-18.8,1.7-37,16.5-41.4,35.3c-1.9,9.4-6.3,18.7-1.8,28.1c-23.2,32.8-4.1,82.4,39.3,90.5c12.2,21.1,34.7,31.6,58.6,31.8
	c18.4-2.6,34.9-9.1,48-22.9c1.3-1.4,2.9-2.3,4.8-2.8c27.5-9.1,42.4-30.5,46.1-58.6c0.8-3.2,0.7-6.5-0.2-9.6
	c-2.8-9.7-3-20.3-9.6-28.8c20.9-0.4,42,8.3,62.8,3c7-2.1,14.2-3.4,21.5-5.1c2.7,9.3-2.2,14.9,3.8,24.6c6.7,17.6,26.6,29.8,45.9,26.3
	c17.9-5,33.9-2,49.5-14c20.5,30,89.5,8,98.1-23.6c18.5-3.6,38,1.3,54-12.1c7.4,2.6,14.7,5.4,22.8,2c3.9,26.2,18,48.1,44.8,55.5
	c8.5,2,16.9,4.5,25.7,4c7.2,0,14.3-2.2,21.6-1.6c10.2,13.3,16.2,29.8,31.7,38.6c44.6,29.4,92-0.5,103.1-48.8
	c22.7,16.1,50.2,9.8,63.2-6.6c19.3-4.8,29.4-7.8,40.2-25.7c23.7,4,42-3.4,54.1-23c20.1-1,38.6-3.8,49.7-22.2
	C1148.2,766.6,1168.7,773.3,1190.8,773.4L1190.8,773.4z"/>
<path class="st7" d="M373.5,481.4c2.9-6.3,6.9-11.9,10.4-17.9C387.8,470.5,380,478,373.5,481.4z"/>
<path class="st8" d="M844.6,491.9c21.9,18.7,43.8,37.2,65.9,56.1c-44.6-3.7-88.7-7.3-133.9-11C799.8,521.6,822.1,506.8,844.6,491.9
	L844.6,491.9z"/>
<path class="st8" d="M877.8,630c-32-2.7-63.4-4.5-95.5-7.1c1.5-10.5,2.9-21,4.4-31.7c22.3,0.5,44,3.3,66.3,4.5
	C881.5,595.5,881.4,605,877.8,630L877.8,630z"/>
<path class="st8" d="M1185.8,663.3c-10.7,1.7-27.5-6.7-31.1-15.2C1147.8,627.1,1190.7,627.6,1185.8,663.3z"/>
<path class="st8" d="M542.3,560.9c-1.9-9-3.9-18.1-5.9-27.4c12.8-3.4,28.7-10.6,33.6,7.1c8.6,28.9,14.8,58.2,22.3,87.5
	c-10.8,2.7-21.7,5.5-33.1,8.3c-1.9-8.7-3.8-17.5-5.8-26.4c30.9-0.7,19.5-8.8,18.9-32.2c-1.2-13.7-17.6-5.3-26.3-5.5
	C543.3,568.9,544.3,564.4,542.3,560.9L542.3,560.9z"/>
<path class="st8" d="M495,653.3c-2.7-11.6-5.4-23.2-8.3-35.5c7.4-0.7,14.5-1.5,21.5-2.2c5.3,9.7,5.3,21.2,8.6,32
	C509.5,649.5,502.2,651.4,495,653.3L495,653.3z"/>
<path class="st8" d="M1539.8,549.7c2.7,46.4-48.2,28.3-28.5,8.3C1518.4,552.8,1531.2,548.5,1539.8,549.7z"/>
<path class="st8" d="M500.5,577.8c-8.4,1-15.6,1.9-23.1,2.8c-2.6-10.2-4.8-19.3-7.2-29.7c7.6-2.1,15.2-4.1,22.9-6.2
	C495.6,555.8,498,566.6,500.5,577.8L500.5,577.8z"/>
<path class="st8" d="M1190.7,773.4c-22.1,0-42.5-6.7-63.7-11.9c-11.1,18.4-29.6,21.1-49.7,22.2c-12.1,19.6-30.3,27-54.1,23
	c-10.8,18-20.8,20.9-40.2,25.7c-13.1,16.4-40.5,22.7-63.2,6.6c-11.1,48.3-58.5,78.2-103.1,48.8c-15.5-8.9-21.6-25.3-31.7-38.6
	c-7.3-0.6-14.3,1.6-21.6,1.6c-8.8,0.4-17.2-2-25.7-4c-26.8-7.4-40.9-29.3-44.8-55.5c-8,3.4-15.3,0.6-22.8-2
	c-16,13.4-35.5,8.5-54,12.1c-8.6,31.5-77.5,53.6-98.1,23.6c-15.6,12.1-31.5,9.1-49.5,14c-19.4,3.5-39.2-8.7-45.9-26.3
	c-6-9.6-1.1-15.2-3.8-24.6c-7.3,1.7-14.5,3.1-21.5,5.1c-20.8,5.3-41.9-3.4-62.8-3c6.6,8.5,6.8,19,9.6,28.8c0.9,3.1,1,6.4,0.2,9.6
	c-3.7,28-18.6,49.5-46.1,58.6c-1.9,0.5-3.4,1.4-4.8,2.8c-13,13.8-29.6,20.3-48,22.9c-23.9-0.2-46.4-10.7-58.6-31.8
	c-43.4-8.1-62.5-57.8-39.3-90.5c-4.5-9.4-0.1-18.7,1.8-28.1c4.5-18.8,22.6-33.6,41.4-35.3c12.2-19.2,36.5-30.8,69-19.4
	c0.8-1.2,1.2-2.4,1.1-4c-16.5-16.6-27.5-38-42.1-56.2c-16-21.2-18.1-50.9-5.6-74c-15.1-27.4-38.4-51-43.6-82.5
	c-2.8-10.1,2.3-19.9,3.7-29.7c1.1-5.8,4.6-10.1,8-14.8c-2.2-11.3-7.4-22.5-1.9-34.2c-2.3-0.6-3.9,0-5.2,0.6
	c-11.9,5.1-23.1,0.4-34.2-2.8c-24.4-10.5-29-40.9-26.9-64.8c-25.5-16-41-37.7-31.1-68.6c8.8-28,40.6-35.4,66.6-31.9
	c18-26.7,38.4-41.7,71.4-30.2c26.9,9.9,31.6,41.1,29.8,66.4c15.8,10.6,31.1,21.8,32.7,43.6c9.5-2.5,18.2-4.9,27.4-1.7
	c8.4,2.9,17.9,2.7,24.6,9.3c1-0.2,1-0.8,1-1.2c2.9-18.6,17.9-34.2,35.5-39.9c24.9-4.7,50.8-13.7,76-12.7
	c15.8-10.4,34.1-11.1,51.5-14.9c18-3.3,36.2-8.1,54.3-9.7c22.8,3.4,39.7,10.5,51.7,31.4c24.3,1.9,47.1,21,49.6,46.5
	c27.5-18.9,53.9-38.1,81-57.3c5.5-4.5,12.9-4.5,19.3-6.7c14.4-5.8,28-0.6,41,4c20,8.1,31.7,28.7,47.5,43.1
	c13.5-13.4,24.2-28.8,40.9-38.2c6-3.7,13.5-3.5,20-5.8c10.7-3.8,20.6,0.6,30.8,2.3c8.9,1.5,15.7,6.9,22.9,11.4
	c29.5,18.5,58.9,37.2,88.1,56c8,5.2,16.5,10.1,21,19.6c30.8-5.5,61.9-5.4,93-8.4c67.4-4.8,115.1,18.9,119.4,91.5
	c6,1.5,11.7,2.9,17.6,4.4c-1.2-16.3-3.2-32.5-6.1-48.5c-2.8-20,3.1-43.9,19.2-56.6c6.8-5.5,13.4-11.9,22.8-12.3
	c-2.6-12.4,1-22,3.3-34c1.6-12.5,8.3-22.5,16.5-30.8c6.2-6.3,11.3-13.7,18.4-19.4c14.3-10.9,39.3-19.6,57-16.3
	c9.9-3.1,19.1,0.1,28.5,2.4c13.4,1.3,24.7,7.6,33.9,16.7c16.8,15.2,32.3,31.5,34.8,55.1c28.9-19,60.6-29.3,95.5-33
	c-5.4-12.2-3.2-25,1.1-37.2c-5.1-13.2-10.3-26.8-6.7-40.4c3.6-26.7,22.2-42.6,48.4-45.8c14.7-19.9,49.5-29.6,75.6-6.6
	c25.7-0.9,50.7,9.2,56.5,50.5c17.2,12.6,22.3,36.3,15.4,55.7c-3.9,17.6-17.9,30.2-33.7,37.8c-5.1,28.5-37.3,47.1-64.8,42.8
	c-10.5-2.5-21.3-4.4-30.4-11c-2.2-1.6-5.1-0.8-8.2-2c12.9,40.5,45.5,90.2,8.4,127.2c14,12.3,18.7,29.3,20.8,46.6
	c1.5,13.5-2.6,28-1.6,41.7c0.3,30-9.7,59.2-38.8,72c-15.4,38-43.3,63.9-81,81.2c25.4,2.9,44.9,22.1,44.9,47.8
	c2.2,23-14.6,39.5-33.2,50.7c2,34.8-12.8,60.7-49.4,64c-25.2-0.8-36.7-13.7-49.5-33.6c-14.9,0.5-29.4-1.7-42.9-9.2
	c-29.9,29.3-71.3,42.2-111.8,48.4c-17.4,1.9-34.2-5-50.9-8.9c-14.2-4.1-27.6-10-39.6-18.9C1228.4,808.4,1206.5,794.1,1190.7,773.4
	L1190.7,773.4z M0,0L0,0"/>
<g>
	<path class="st9" d="M1417.1,349.5c-8.1-3.9-11.4-13.8-2.4-18.7c3.1-1.7,4.9-4.2,6.3-7.1c2.9-6.2,10.7-7.2,14.9-1.7
		c2.3,3,3,6.9,7.1,8.2c6.6,2.8,7.8,11.4,2.3,16c-3.3,2.7-6.7,4.8-11.5,2.2C1428.4,345.7,1422.7,350.5,1417.1,349.5L1417.1,349.5z"/>
	<path class="st10" d="M1436.1,298c9.8-0.8,10.9,15,3,17.7C1429.4,318.1,1428.1,301.8,1436.1,298z"/>
	<path class="st10" d="M1401.3,315.2c1.1-1.5,2.7-2.4,4.3-3.1c6.9,1.1,11.5,7.2,9.5,12.7C1410.6,335.6,1397.7,323.4,1401.3,315.2
		L1401.3,315.2z"/>
	<path class="st10" d="M1421.6,298.7c6.4,5.5,6.9,12.3,1.2,17c-1.6,0-3.3,0-5.1,0C1410.2,310.5,1411.8,298.2,1421.6,298.7z"/>
	<path class="st10" d="M1458.2,317.8c-1.4,6.9-11.3,15.9-15.5,6.2C1440.5,313.9,1453.2,305.9,1458.2,317.8z"/>
</g>
<path class="st11" d="M492.6,791.2v4.3c-2.7,2.4-5.6,2.2-8.6,1C484.3,791.6,487.2,789.9,492.6,791.2z"/>
<path class="st12" d="M1057.9,740.8c-3.6,4.1-25.9,36.3-29.5,21.6c-0.9-10.5,1.3-21,0.4-31.6c-6.8-5.2-13.4-10.8-20.4-15.6
	c-3.8-2.7-6-5.4-4.7-10.2c3.4-4.5,8.5-3,13.1-3c7.1,0.1,14.3-0.2,21.6,0.9c5.4-4.9,18.8-30.4,25.5-25.8c3.1,1.4,4.7,3.7,4.4,6.9
	c-0.7,9.4,0,18.8-1.1,28c8.5,6.6,16.8,13.1,24.8,19.3c1.2,7.9,0.7,9.8-8.5,10C1072.7,741.8,1068.4,740.7,1057.9,740.8L1057.9,740.8z
	"/>
<path class="st13" d="M940.4,811.7c-0.7-0.7-1.7-1.8-2.4-3.5c-0.2-0.7-1-2.8,0.4-10c0.6-3.2,0.9-3.6,1.2-5.9
	c0.3-2.7,0.2-4.9,0.1-6.3c-2.2-1.3-3.8-2.5-5-3.3c-4.8-3.5-8.2-6.1-9.7-10.3c-0.6-1.7-0.8-3.2-0.8-4.2c1.4-1.3,2.7-2,3.5-2.4
	c2.2-1,4.8-1.5,15.3-0.1c2.1,0.3,3.8,0.5,4.8,0.7c1-0.7,2.5-1.9,4-3.5c5.3-5.6,5.8-11.1,10.2-12.3c0.6-0.2,1.5-0.3,2.6-0.2
	c1.6,0.8,2.4,1.8,2.8,2.4c2.3,3.5-0.3,7.5-0.2,14.8c0,2.6,0.4,4.6,0.6,5.7c0.7,0.9,1.9,2.4,3.5,4c5.2,5.3,8.8,6.3,10.8,10.8
	c0.4,1,0.9,2.4,1.1,4.4c-0.8,0.7-2,1.7-3.8,2.2c-0.8,0.2-2.1,0.4-7.4-0.5c-2.7-0.5-3.3-0.7-5.9-1.2c-2-0.3-3.7-0.6-4.8-0.7
	c-0.7,1-1.7,2.3-2.9,3.9c-2.5,3.3-4.5,5.7-5.3,6.7c-5.4,6.5-7,7.4-8.4,8C942.9,811.6,941.4,811.7,940.4,811.7L940.4,811.7z"/>
<path d="M243,870.9c-16.8,0.9-29.6-19.3-19.2-33c4.5-6.2,4.8-12.5,3.8-19.5c-3.3-17.2,11.6-29.6,26.3-23.2
	c8.2,4.3,15.2,10.2,25.2,7.7c21.5-3.8,32.2,26.7,15,39.4c-9.2,7.5-22.5,7.3-30,17.5C258.9,865.9,251.4,870.6,243,870.9L243,870.9z"
	/>
<path d="M195.2,809.8c7.8,0.7,15.2,4.5,19.4,13.2c9,24.9-30.2,22.5-35.1,3.6C176.5,817.3,182.9,809.7,195.2,809.8L195.2,809.8z"/>
<path d="M200.1,767.1c19.3-1.5,32.8,36,7.5,36.2C190,803.2,177.3,768.9,200.1,767.1z"/>
<path d="M255.4,767.3c1,11.9-12.8,19.5-21.9,11.5c-14.9-8.4-14.3-40.4,7.6-33.4C249.3,748.5,255.4,757.9,255.4,767.3L255.4,767.3z"
	/>
<path d="M264,773.4c4.4-39,43.8-10.6,25,15C278.3,801,263.1,786.3,264,773.4z"/>
<path class="st13" d="M341.2,736.3c22-44.6,44.1-89.1,66.8-133.3c7,39.9,13.5,83.2,0,122.3C396.2,752.1,363.2,736.7,341.2,736.3z"/>
<path class="st7" d="M279.7,639.8c28.5-50.9,59.4-100.6,89.1-150.8c16.8,36.5,29.9,74.8,39,114c-22.7,44.2-44.8,88.8-66.8,133.3
	c-54.5-3.4-18.1-13.6-19.5-79.7c-3.3,0.7-5,3.5-7.3,5.2C296.4,674.4,289.4,651.2,279.7,639.8L279.7,639.8z"/>
<path class="st14" d="M279.7,639.8c-37-47.8-22.9-32.5,20.9-73.9c-3.4-8.4-6.7-16.9-10.2-25.8c-9.6,5.6-23.1,16.4-32,3.6
	c-11.2-18-22.6-35.9-33.9-53.8c-2.9-4.5-2-11.4,3.2-14.6c7.9-4.8,15.3-10.3,23.3-15.8c-33.2-51.8-26.8-31.9,38.9-80.6
	c9.8-6.6,14.4-5.5,21.5,5.1c5.5,8.1,10.8,16.1,16.1,24.4c7.4-5.9,18-12.4,24.1-1.1c10.4,17.5,20.9,34.9,31.3,52.4
	c0.7,1.2,1.5,2.3,1.1,3.8c-5.5,7.3-7.9,17.2-16,22c0.2,1.5,2,3,0.3,4.3C339,540,307.9,589.2,279.7,639.8L279.7,639.8z"/>
<path class="st14" d="M155.9,325.1c-10.1-7.6-20.1-15.1-30-22.7c-8.7-4.8-7.1-17.9,6-16.1c50.6,0.7,29.6,7.2,62-31.4
	c4-5.6,13.9-2.6,13.8,4.3c0.2,14.1-0.9,27.2-0.5,41.5c9.6,7.3,19.5,15.1,29.6,22.6c4.8,3.6,6.2,6.9,4.1,11.5
	c-1.4,3.2-4.1,4.2-7.3,4.2c-13.4,0-26.7,0-40.8,0c-6.8,8.9-14.4,18.6-21.8,28.5c-3.3,4.5-6.9,7.5-13.2,4.6c-2.6-2.4-3.4-5.6-3.1-9.9
	C155.7,349.7,154.7,337.6,155.9,325.1L155.9,325.1z"/>
<path class="st14" d="M451.4,349.5c-21.2,35.7-42.5,71.4-63.6,107.1c-4.4-0.9-6-4.1-6.8-8.1c-3.5-17.9-7-35.7-10.6-53.5
	c-4.9-14.6,10.9-14.5,21.8-16.5c-1.9-9.1-3.8-18.1-5.7-27.1c-1.5-7,0.6-10.3,7.6-11.6c15-2.8,30-5.6,45-8.2
	C450.2,329.3,450.2,341.8,451.4,349.5L451.4,349.5z"/>
<path class="st7" d="M451.4,349.5c1.8,5,2.1,10.3,3.6,15.7c9-1.9,18-3.7,27.4-5.6c-2-10.6-4-21.2-6-31.9c0.5-5,3.6-6.7,8.3-7.6
	c14.9-2.7,29.7-5.8,44.6-8.7c8.2-0.5,18.3-6.1,25.9-2.5c-20.5,42.3-42,84.1-63,126.1c-7,2.8-15,2.3-21.7,5.7
	c1,10.4,11.5,28.9-4,32.4c-13.7,2.8-27.5,5.6-41.3,8.2c-14.9,4.4-14.2-17.4-17.1-27.9c-7.1,0.4-13.4,3.3-20.2,3.1
	C408.9,420.9,430.1,385.2,451.4,349.5L451.4,349.5z"/>
<path class="st13" d="M492.1,435.1c21-42,42.5-83.9,63-126.1c5.6,5.5,5.9,25,8.4,34c51.3-10.8,34.6-12.2,50.5,53.5
	c1.8,8.8,1.4,13.7-9.8,15.4c-8.8,1.9-16.9,3.2-25.8,5.5c4.5,37.8,10.8,25.7-36.8,37.8c-36.2,5.4-38.2,19.4-44.8-20.4
	C495.2,434.9,493.7,435,492.1,435.1L492.1,435.1z"/>
<path class="st13" d="M495,653.3c-10.6,23-22.7,45.5-33.9,68.3c-7-4.5-7.5-12.2-9.4-19.1c-10.9-40.6-22.4-81.1-32.5-121.9
	c14.6-29.8,30.2-59.2,44.2-89.2c24.6-7.1,49.2-14,73.7-21.3c18.4-4.3,36.8-14.4,56.1-11.1c-12.4,22.9-23.4,46.5-35.2,69.7
	c-7.5,0.6-14.4,3.2-21.6,4.9c2,9.3,4,18.4,5.9,27.4c-11.3,19.7-20.4,41-31.4,60.9c-1-1.9-0.5-4.5-2.7-6.2
	c-6.9,0.7-14.1,1.4-21.5,2.2C489.6,630,492.3,641.6,495,653.3L495,653.3z M500.5,577.8c-2.5-11.2-4.9-22-7.4-33.1
	c-7.7,2.1-15.3,4.2-22.9,6.2c2.4,10.3,4.6,19.4,7.2,29.7C484.9,579.7,492.1,578.8,500.5,577.8L500.5,577.8z"/>
<path class="st7" d="M463.5,491.3c-14.1,30-29.6,59.4-44.2,89.2C401.4,507.3,384.5,512.5,463.5,491.3L463.5,491.3z"/>
<path class="st7" d="M593.3,458.9c27.5,2.9,41.7,30.4,46.5,54.6c9.6,39.7,19.7,79.3,28.9,119.1c6.9,19,3.6,42.5-18.9,46.8
	c-58.3,14.4-116.5,29.2-174.7,43.9c-4.5,1.1-9.6,1.4-13.9-1.8c11.1-22.8,23.3-45.2,33.9-68.3c7.2-1.9,14.4-3.8,21.8-5.7
	c-2-8.7-4-17.2-5.9-25.7c11.1-19.9,20.1-41.2,31.4-60.9c2,3.5,1,8,3.6,11.5c8.8,0.2,25.1-8.2,26.3,5.5c0.6,23.5,12,31.5-18.9,32.2
	c2,9,3.9,17.8,5.8,26.4c11.5-2.9,22.3-5.6,33.1-8.3c-4.2-17.2-8.3-34.2-12.7-51.1c-5.1-13.6-5.2-44.8-21.6-48.4
	C569.9,505.5,580.9,481.8,593.3,458.9L593.3,458.9z"/>
<path class="st7" d="M819,429.1c-38.5,67.3-77.3,134.5-116.1,201.6c0.8-20.1,4.2-39.9,4.3-60.1c-9.9-5.1-15.9-15.1-23.4-22.9
	c-6.8-10.3-33.5-25.3-15.3-36.8c36.2-22,72.2-44.2,108.4-66.1C789.6,436.8,803.3,427.3,819,429.1L819,429.1z"/>
<path class="st7" d="M767.7,318.7c5.8,1.2,9.3,4.6,12.6,8.7c11.2,12.3,22.8,24.3,34.5,36.2c5.8,5.9,5,13-1.5,18.1
	c-12.5,9.5-24.7,19.3-37,28.9c-13.5,10.5-27,21.1-40.6,31.6c-7.6,5.8-20.3,5.7-27.2-2.5c-8.8-10.5-18.3-20.5-27.2-31
	c-6.6-7.3-18.6-17.5-6.4-25.8C706.1,362.2,735,336.8,767.7,318.7L767.7,318.7z"/>
<path class="st14" d="M818.2,428.5c14,0.4,28,2.8,42,4.4c13.8,1.9,28.2,1.5,40.8,9.1c24.1,16,46.8,34.1,70.4,51
	c67.3,50.1,64.4,32.1,3.5,89.9c2.8,9.1,2.7,18,1,27.2c-3.5,20.8-4.8,41.9-9.2,62.5c-4.8,19.3-27.7,12-42.3,11.6
	c-27.8-2.7-55.7-4.6-83.5-7.4c-35-2.9-70-5.7-104.9-9c-12-2.2-31.1,2.2-35.2-12.8c0.1-4.8,0.4-9.8,1-15.2c0.3-3.2,0.7-6.2,1.2-9.1
	c3.1-5.8,8.2-15.5,14.7-27.3c13.4-24.2,24.1-41.8,27.2-47.2C769.3,513.5,794,471.2,818.2,428.5z M844.6,491.9
	c-22.4,14.9-44.8,29.7-68,45.1c45.3,3.7,89.4,7.3,133.9,11C888.3,529.1,866.5,510.6,844.6,491.9L844.6,491.9z M877.9,630
	c3.5-25,3.7-34.4-24.8-34.3c-22.3-1.2-43.9-4-66.3-4.5c-1.5,10.6-2.9,21.2-4.4,31.7C814.5,625.5,845.9,627.2,877.9,630L877.9,630z"
	/>
<path class="st14" d="M972.4,454.4c-8,1.6-13.2-4.5-19.2-8.7c-28.7-20.6-57.2-41.5-86.1-62c-10.5-10.3,6.1-21.2,12.3-28.9
	c8.5-9.6,17.5-18.8,26.3-28c4.2-4.4,9.9-5,14.9-1.9c33,20.7,65.7,41.9,98.7,62.5c6,3.4,7,11.4,1.6,18.4
	c-11,14.1-21.9,28.3-32.7,42.5C984.4,453.5,979.1,454.9,972.4,454.4L972.4,454.4z"/>
<path class="st14" d="M1190.9,561.6c-62,3.7-44.3,6.9-47.1-68.4c-0.1-20-21.5-11.5-34.1-11c-11.6-0.1-31.8,8.9-34.3-8.5
	c-2.1-17.9-5.3-35.6-7.4-53.4c-0.2-12.1,17.8-7.2,25.6-9.3c15.5-1.5,31-2.9,46.6-3.8c85.4-6.7,87,0.5,85.2,83.4L1190.9,561.6z"/>
<path class="st15" d="M1232.9,490.6c8.5,0,63.2,1.9,94.2,40.1c28.5,35.3,26.9,89.3,3.3,127.3c-24.8,39.9-66.6,50.5-75.9,52.6
	c20.6,37.2,56,59.5,89.6,55.7c3.5-0.4,30.7-4,48.3-25.3c21.8-26.4,17.3-65.9,31-67.7c1.8-0.2,5.6,0,8.3,2.3c5,4.3,4.5,14.2,4.4,15.6
	c0,0.1,0,0.2,0,0.4c-2.3,39.8-21.2,65.2-21.2,65.2c-19.6,26.3-54.3,38.8-84.2,37.2c-29-1.5-49-16.2-69.1-30.3
	c-17.1-12-31.9-26.9-45.3-45.2c-35.5,2.8-77-0.7-101.8-29.4c20.5-34.5,41-68.9,61.4-103.4c35.2,1.9,61.9,26.1,66.9,61
	c20.1-13.5,24.1-46.5,11.9-64.2c-14.5-20.3-41.3-20.9-63.9-21c6-12.1,11.9-24.2,17.9-36.3c5.6-11.5,11.2-23.1,16.8-34.6
	C1227.9,490.6,1230.4,490.6,1232.9,490.6z M1185.8,663.3c5-35.7-38-36.1-31.1-15.2C1158.3,656.6,1175,665,1185.8,663.3z"/>
<path class="st14" d="M1175.9,585.9c-20.4,34.5-40.9,69-61.4,103.4c-9.2-7.5-11.9-19-15.7-29.6
	C1089.8,613,1131.5,579.6,1175.9,585.9L1175.9,585.9z"/>
<path class="st16" d="M1385.9,528c33.6-56.2,67.3-112.3,100.6-168.7c9.7-0.9,10.1,3.6,11.1,12.1c1.2,10,2.5,20,3.6,30
	c6.5,39.7,1.8,27.2-30.4,35.5c-1.3,29.1-2.2,58.2-8.6,88c15.7-17,34.9-25.6,55.7-31.4c-21.5,40.6-46,79.7-68.2,119.9
	c-18-24-10.4-56.3,4.7-79.3c-15.8-1.3-31.8-1.2-47.6-1.9C1400.1,530.9,1390.5,534.5,1385.9,528L1385.9,528z"/>
<path class="st16" d="M1614.7,325.5c-18.4,34.8-39.2,68.4-58.5,102.7c-2.2-1.1-3-3.3-3.7-5.4c-5.9-17.6-11.6-35.2-17.5-52.7
	c-1.1-3.2-0.4-5.4,1.8-7.7C1558.2,343.3,1586.3,329.8,1614.7,325.5L1614.7,325.5z"/>
<path class="st15" d="M1614.7,325.5c4.4-0.5,6.3,2.4,7.6,5.8c7.8,21,15.8,42,23.3,63.2c2,6,0.4,9.3-5.6,11.2
	c-25.6,8-51.3,15.2-76.8,23.6c-2.4,0.8-4.9,1-6.9-1C1575.5,393.9,1596.3,360.3,1614.7,325.5L1614.7,325.5z"/>
<path class="st15" d="M1518,493.5c5.9-1.5,11.8-3,17.8-4.6c-0.4-8-0.8-15.6-1.3-23.2c-0.1-0.3-1.4-4.6,1.4-7.9
	c1.6-1.9,3.7-2.5,4.5-2.6c22.6-2,45.7-2.6,68.4-2.5c11.6,3.2,5,18.3,8.5,26.7c30.8,4.3,33.2-7.3,30.6,29.9
	c-3.2,15.6,7.6,48.1-17.8,44.5c-4-0.4-7.9-0.3-11.9-0.3c-1.8,44.9-38.2,80.3-81.6,86.7c-30.5,5.8-67.6,0.2-86.8-26.8
	C1472,573.2,1496.5,534.1,1518,493.5z M1539.8,549.7c-8.6-1.1-21.4,3.2-28.5,8.3C1491.6,577.7,1542.4,596.3,1539.8,549.7z"/>
<path d="M1719.3,291.2c-15-0.4-22-13.4-40.9-13c-27.1-0.3-33.6-40.2-6.4-44.7c17.3,0,22.6-23.4,40.8-17.6c11.1,2.9,14.1,12.9,15,23
	c0.3,5.7,2.8,10.1,7.2,13.8C1751.3,265.2,1740.4,292.2,1719.3,291.2L1719.3,291.2z"/>
<path d="M1754.4,252.2c-25.6-1.6-9.2-36.4,9.6-34.5C1788.7,220.5,1772.8,253.4,1754.4,252.2z"/>
<path d="M1725.6,200.1c0.4-8,3.8-15.1,11.2-19.9c22.9-12.4,27.5,24.4,10.2,33.4C1736.3,221.3,1724.7,212.6,1725.6,200.1z"/>
<path d="M1717.7,182.1c1.3,15.6-19.3,32.4-28.9,14C1677,171.1,1714.7,147,1717.7,182.1z"/>
<path d="M1650.8,203.8c2.2-36.3,40.2-12.6,28.5,12.4C1670.5,234.3,1649.8,218.1,1650.8,203.8z"/>
<path class="st15" d="M1505.6,735.8c0.7-13.5,0.2-26.7,1.4-40c5-6.6,9.6-6.6,14.8,0.7c6.5,9.2,12.8,18.5,19.9,28.8
	c10.8,0,22.2,0,33.7,0c7.4,0,9.7,2.5,9.2,10.6c-9.7,8.8-21.7,15.2-32.7,23.6c-0.4,11.6-1.1,23.5-0.9,35.3c0.3,10.8-12.1,11.9-15.8,3
	c-24.6-34.6-11-26.7-53.4-27.8c-5.4,0-8.3-1.9-9.4-6c-1.4-5.3,2.8-7.5,6-9.7C1487.3,747.9,1496.4,742,1505.6,735.8L1505.6,735.8z"/>
<path class="st15" d="M1385.9,528c-5.4-6.1,0.7-18.1-0.2-26.1c1.1-17.6,1.7-35,1.7-52.7c-9.6,1.2-18.2,2.9-27.6,4.4
	c-5,0.7-8.4-2.7-9.1-8.5c-2.5-19-4.8-38-7.4-57c-0.5-3.1,2.9-7.4,6.2-7.9c13.1-2.3,26.4-3.3,39.2-6.4v-40.7
	c-2.8-6.3-4.6-13.9-2.3-22.3c1.8-8.7,8.9-10,13.1-15.8c3.8-11.1,15.9-13.8,24.9-12.1c2.6,0.5,5.1,0.7,7.7-0.1
	c9.3-2.6,22.6,1.5,25.9,12.6c12.4,8.4,17.3,12.9,14.4,29.1c-1.1,5.4-4.8,10.3-3.3,16.1c1.6,6.7-0.4,13.7,2,20.8
	c5.2-0.8,10.2-1.5,15.3-2.3C1453.3,415.7,1419.6,471.9,1385.9,528L1385.9,528z M1417.1,349.5c5.6,1,11.3-3.8,16.6-1.2
	c4.8,2.6,8.2,0.5,11.5-2.2c5.6-4.5,4.3-13.2-2.3-16c-4-1.3-4.7-5.3-7.1-8.2c-4.2-5.5-12-4.6-14.9,1.7c-1.4,3-3.2,5.5-6.3,7.1
	C1405.8,335.7,1409,345.6,1417.1,349.5L1417.1,349.5z M1436.1,297.9c-8.1,3.8-6.7,20.1,3,17.7C1447,312.9,1445.9,297.1,1436.1,297.9
	z M1401.3,315.2c-3.6,8.1,9.2,20.3,13.8,9.6c2-5.5-2.6-11.6-9.5-12.7C1404,312.9,1402.4,313.8,1401.3,315.2L1401.3,315.2z
	 M1421.5,298.7c-9.8-0.4-11.4,11.9-3.9,17h5.1C1428.4,311,1428,304.1,1421.5,298.7z M1458.2,317.8c-5-11.8-17.7-3.9-15.5,6.2
	C1446.9,333.7,1456.7,324.7,1458.2,317.8z"/>
<path class="st17" d="M796,728.2c12.9-0.1,21.5,6.7,27.4,17.5c7.2,13.4,8.9,14.3,23.8,11.9c17.6-2.8,32.4,8.1,36.3,26.5
	c5,24.1-7.2,90.3-43,69.4c-6.3-3.9-9.7-10.2-13.2-16.4c-17-33.5-38.5-30.9-71-28.5C702.5,798.9,764.9,725.8,796,728.2L796,728.2z"/>
<path class="st8" d="M790,777.7c-2.5,3.3-3.2,7.2-6,9.9c-2.9-0.2-5-2.1-7.6-3.2c-1.2-4.8,4.1-7.8,3.7-12.7
	c-3.3-1.8-6.7-3.6-10.1-5.5c0.6-3.5,2.2-6.1,4.1-8.6c4,0.7,7,3.5,11,4.6c3.6-2.3,3.5-7.2,6.9-10.2c3.2,0.3,5.8,1.8,8.2,4.1
	c-0.7,4.2-3.9,7.2-4.5,11.2c2.8,3.2,7.5,3.4,10.3,6.7c-0.8,3-2,5.6-4.1,7.8C797.5,781.7,794.6,777.3,790,777.7L790,777.7z"/>
<g>
	<path class="st18" d="M862.8,788.1c0,8.9-14.1,8.5-13.8-0.2C849.1,778.7,863.1,778.9,862.8,788.1z"/>
	<path class="st18" d="M843,794c0,9.1-13.8,9.4-14,0.2C828.8,785.6,842.8,785.2,843,794z"/>
	<path class="st18" d="M849.4,814.4c0.2,8.6-14.2,8.8-13.9-0.1C835.7,805,849.5,805.2,849.4,814.4z"/>
	<path class="st18" d="M855.5,807.4c-0.1-8.8,14.2-8.4,13.7,0.4C869.1,816.9,854.9,816.7,855.5,807.4z"/>
</g>
<path d="M610.4,723.3c6.7-1.2,12.1-2,19-2.7c0.4,3.7,0.8,7.1,1.2,10.9c-6.8,1.2-13.5,2.3-20.5,3.5c-0.5,13.8-1,27.4-1.5,41
	c-4,0.4-7.8,0.8-11.8,1.2c-0.2-13.3,1.5-26.3,1-39.6c-3.5,0.7-6.8,1.3-10.2,2c-1-3.4-1-6.9-1.3-10.7c3.7-1.1,7.3-2.1,11.1-3.2
	c0.9-3.5,0-7.2,1.5-10.9h11.7L610.4,723.3L610.4,723.3z"/>
<path d="M668.5,712.2c7.5,17.4,16.1,32.4,26.8,47.9c-3.5,2.1-6.9,4.1-10.7,6.3c-11.5-14.6-20.3-30.7-27.5-48
	C661.1,716.2,664.6,714.3,668.5,712.2L668.5,712.2z"/>
<path d="M540.5,810.4c0.7-3.8,1.3-7.5,1.9-11.3c15.8,1.6,28.6-5.4,41-14.2c2.3,3.8,4.4,7.4,6.6,10.9
	C577.5,808.4,552.8,815.8,540.5,810.4L540.5,810.4z"/>
<path d="M534.1,780.5c-1.5-3.7-3-7.4-4.6-11.2c11.2-6.4,22.6-12.2,34.9-16.6c1.5,3.7,2.9,7.3,4.4,11
	C557.2,769.3,545.8,774.8,534.1,780.5z"/>
<path d="M724.7,728.4c2,3.7,3.8,6.9,5.6,10.2c-13.9,10.4-27,13.8-35.9,7.4c-0.3-3.4,1-6.7,1.1-10.6
	C706.8,739,715.7,734.1,724.7,728.4z"/>
<path d="M679.5,711.8c8.4-6.8,17.3-12,26.8-16.5c1.7,3.3,3.4,6.6,5.2,10.1c-8.4,5.3-17.2,9.7-25.3,16
	C683.8,718.2,681.7,715,679.5,711.8L679.5,711.8z"/>
<path class="st19" d="M614,768.6c1.6-3.3,3-6.4,4.5-9.6c9.8,5.3,19.8,3.2,29.9,1.5c1,3.3,1,6.6,1.4,10.3
	C637.8,773.6,625.9,775.2,614,768.6L614,768.6z"/>
<path class="st19" d="M618.2,750.3c-0.5-3.5-0.9-6.6-1.3-10c9.1-2,18.1-3.1,27.5-3.9c0.5,3.6,1,6.8,1.5,10.4
	C636.7,748.2,627.7,749.7,618.2,750.3L618.2,750.3z"/>
<path d="M492.6,791.2c-5.5-1.3-8.4,0.5-8.6,5.2c3,1.2,5.9,1.5,8.6-1V791.2z M463.6,753.2c0.8,4.4,1.5,8.3,2.2,12.7
	c16.5-13.2,35.2-7.6,36.8,14.3c2.5,0.8,4.8,1.5,7.3,2.3v10.7c-2.1,0-4-1-6.2-0.2c1.9,9.5-7.2,16-16.1,15.7c-7.5,0-12.8-4-13.5-10.6
	c-1.2-11.2,2.4-15.2,16-17.6c-2.1-15.4-16.7-3.5-21.7,3.8c1.3,8.8,2.6,17.7,4,26.9c-4.3,0.7-8.3,1.3-12.5,2
	c-0.5-2.9-0.9-5.4-1.4-8.3c-2.6,1.1-3.9,3.6-6.3,5.2c-2.1-3.5-4.2-7-6.4-10.4c2.8-6.3,8.1-11.3,9.2-18.8c-3.9,0.7-7,1.3-10.6,2
	c-0.6-4.1-1.1-8-1.7-12.2c3.3-0.7,6.4-1.4,9.7-2.1c-0.7-4.1-1.3-8-2-12.4C454.8,755.1,459,754.2,463.6,753.2L463.6,753.2z"/>
<path class="st16" d="M1346,766.1c-12.6,3.5-18.9,13.3-17,19.9c1.4,5.1,7.6,7.6,9.2,8.2c8.1-0.2,19.4-1.5,32.1-5.9
	c10-3.5,18-8,23.8-11.9c4.8-3.1,11.1-8,17.2-15.3c5.7-6.7,9.2-13.3,11.5-18.3c4-7.2,2.7-15.4-1.5-18.9c-5.4-4.4-16.9-2.6-22.4,7.4
	c-3.6,5.8-11.3,16.5-24.9,24.7C1362.9,762.8,1352.4,765.1,1346,766.1z"/>
</svg>
